<svg version="1.2" xmlns="http://www.w3.org/2000/svg" viewBox="0 0 1160 131" width="3002" height="339"><style>.s0{opacity: 1;fill:#005197}</style><path fill-rule="evenodd" class="s0" d="m61 5.1c7.3-0.1 10.9 0.3 11.8 1.1c0.7 0.8 1.2 3.8 1.2 7.3c0 3.3-0.5 6.7-1 7.5c-0.7 1.2-3.3 1.5-12.2 1.5c-8.4 0-11.9 0.4-13.5 1.5c-1.3 0.8-3.4 4-4.8 7c-1.3 3-3.4 9.8-4.5 15c-1.1 5.2-1.7 9.9-1.3 10.3c0.5 0.4 5.6-0.1 11.5-1.3c6-1.1 12.8-2 15.3-2c2.5 0 6.1 0.7 8 1.5c3.4 1.5 3.5 1.6 2.9 5.8c-0.4 2.3-1 5.2-1.5 6.5c-0.7 1.8-1.4 2.1-3.7 1.5c-1.5-0.3-5.9-0.6-9.7-0.6c-3.9 0-10.8 0.8-15.5 1.7c-4.7 1-9.1 2.3-9.7 3c-0.7 0.6-1.6 4.3-1.9 8.1c-0.4 3.8-0.8 7.9-1 9c-0.2 1.1-0.9 8.8-1.5 17c-0.7 9.4-1.6 15.8-2.5 17.3c-0.9 1.4-2.2 2.1-3.6 1.9c-1.2-0.1-2.8-1.3-3.5-2.7c-0.9-1.8-1.3-9.1-1.3-49h-2.5c-1.7 0-2.5-0.5-2.5-1.8c0-0.9 1.6-4 3.6-6.7c3-4.3 3.6-6.2 4.5-13.5c0.5-4.7 1.6-12.1 2.5-16.5c0.9-4.4 2.5-9.8 3.7-12c1.1-2.2 4.5-6.5 7.6-9.6c3.5-3.5 7.3-6.2 10.1-7.2c2.9-1 8.2-1.6 15-1.6zm1044.5 28.3c3.8 0.3 11.6 1.8 17.2 3.5c9.9 3 10.5 3 14.5 1.6c2.4-0.9 5.5-1.5 9.8-1.5l0.6 18.7c0.4 10.4 0.3 27.6-0.1 38.3c-0.3 10.7-0.7 19.6-0.8 19.7c-0.1 0.2-3.1-0.5-13.2-3.1l-13 3.2c-7.2 1.8-14.9 3.2-17.3 3.2c-2.3 0-6.8-1-10-2.1c-3.1-1.2-7.5-3.4-9.6-4.8c-2.2-1.4-5.8-4.8-8.1-7.6c-2.3-2.7-5.2-7.7-6.6-11c-2-5.1-2.4-7.6-2.4-16.5c0.1-9.7 0.3-11 3.4-17.5c1.8-3.9 4.9-9 6.9-11.4c2-2.5 5.5-5.6 7.7-6.9c2.2-1.4 6.2-3.4 9-4.4c3.8-1.4 6.7-1.7 12-1.4zm-10.5 25.2c-1.4 1.6-3.2 4.7-4 6.9c-0.8 2.2-1.4 6.5-1.4 9.5c0 3 0.7 7.5 1.6 10c0.9 2.5 3.3 6 5.2 7.8c2.4 2.1 5 3.4 7.8 3.8c2.4 0.4 5.5 0.4 7 0c1.6-0.3 4.2-1.8 5.9-3.3c1.8-1.6 4-4.5 5-6.5c1.1-2.1 2.2-5.7 2.5-8c0.4-2.4 0.1-6.5-0.5-9.3c-0.6-2.7-2.6-7-4.4-9.4c-1.7-2.4-4.3-4.9-5.7-5.6c-1.4-0.7-3.8-1.5-5.5-1.9c-1.9-0.4-4.4 0.1-7 1.2c-2.2 1-5.1 3.2-6.5 4.8zm-823.7-52.6c1.2-0.1 2.9 0.7 3.7 1.6c1.1 1.1 1.3 2.7 0.9 5.3c-0.4 2-4.5 14.3-9.3 27.4c-8.4 23.2-8.6 23.9-8.6 32.7q0 9 1.5 12c0.8 1.7 2.5 3.5 3.8 4.1c1.2 0.6 3.6 0.9 5.2 0.5c1.7-0.3 5-2 7.5-3.7c2.5-1.8 8.8-7.1 14-11.9c5.2-4.8 12.1-10.8 15.3-13.3c3.1-2.6 7.5-5.6 9.7-6.7c2.2-1.1 5-2 6.3-2c1.2 0 2.8 0.5 3.5 1.2c0.7 0.7 1.2 1.8 1.3 2.3c0 0.6-7.5 8.8-16.6 18.3c-9.1 9.4-16.5 17.8-16.5 18.5c-0.1 0.9 0.4 0.8 1.7-0.3c1-0.8 5.4-4.4 9.8-8.1c4.4-3.6 9-7.1 10.3-7.7c1.2-0.7 3.3-1.2 4.7-1.2c2.1 0 2.7 0.7 3.5 4.3c0.6 2.3 1.5 5.9 2 8c0.6 2.1 1.8 3.9 2.8 4.2c0.9 0.3 3.5-0.7 5.7-2.2c2.2-1.4 9.2-6.8 15.5-11.8c6.3-5.1 13.5-10.5 16-12.2c2.5-1.7 6.4-4 8.8-5.2c2.3-1.1 4.9-2.1 5.7-2.1c0.8 0 2.2 0.7 3 1.5c0.8 0.8 1.5 2.6 1.5 4c0 2-2.5 4.5-12.2 12.3c-6.8 5.4-13.3 11.1-14.6 12.8c-1.3 1.6-2.2 4.2-2.2 5.9c0 1.7 0.8 3.8 1.8 4.8c1.1 1.1 3.1 1.7 5.7 1.7c2.2 0 6-1 8.5-2.1c2.5-1.1 6.5-3.6 9-5.5c2.5-1.9 8.4-7.9 13.3-13.4c7.9-9.1 9-10 12.2-10c2.7 0 4.1 0.7 6 3c1.4 1.7 2.5 4.1 2.5 5.5c0 1.4 0.5 4.8 1 7.5c0.6 2.8 1.7 5.7 2.5 6.5c0.9 0.9 2.2 1.2 3.3 0.9c0.9-0.4 4-2.4 6.7-4.4c2.8-2 10-8.1 16-13.5c6.1-5.4 12.8-11.1 15-12.7c2.2-1.6 4.8-2.8 5.8-2.8c0.9 0 1.9 0.9 2.2 2c0.4 1.7 1.3 2 5.8 2c3.7-0.1 6 0.5 8 2c1.5 1.1 3.4 3.5 4.3 5.3c1.2 2.3 1.5 4.8 1.2 8.7c-0.3 3-1.6 7.5-2.8 10c-1.3 2.5-5.3 7.5-8.9 11.2c-3.6 3.6-8.6 7.5-11.1 8.7c-2.7 1.2-6.6 2.1-9.7 2.1c-2.9 0-6.8-0.6-8.5-1.3c-2.1-0.9-3.9-2.7-5-5c-1-2-1.8-5.8-1.8-13.2l-3.2 3.1c-1.8 1.8-6 5.1-9.3 7.3c-4.5 3.1-7 4.1-9.7 4.1c-3 0-4.5-0.7-7-3.4c-1.8-1.9-4.6-5.7-6.3-8.5c-1.6-2.8-3.3-5.1-3.7-5.1c-0.5 0-4.3 2.8-8.5 6.3c-4.3 3.5-9.8 7.7-12.3 9.4c-2.5 1.7-7 4.3-10 5.7c-3.8 1.8-7.2 2.6-11 2.6c-3.4 0-7.2-0.8-9.7-2c-2.6-1.2-4.9-3.2-5.8-5c-0.8-1.6-1.5-4.1-1.5-5.5c0-1.4-0.3-2.7-0.7-2.9c-0.5-0.3-3.3 1.1-6.3 3c-3 1.9-7.1 3.7-9 4q-3.5 0.5-5.7-1c-1.3-0.9-3.4-3.8-4.8-6.6c-1.6-3.3-2.9-4.8-3.7-4.3c-0.7 0.3-5.1 3.7-9.8 7.3c-4.7 3.7-10.1 7.7-12 8.9c-1.9 1.1-4.6 2.1-6 2.1c-1.4 0-3.5-0.7-4.7-1.5c-1.8-1.2-2.3-2.5-2.4-11l-3.7 1.8c-2 1-5.5 2-7.7 2.3c-3.5 0.5-4.5 0.2-8-2.8c-2.2-1.9-5.5-5.8-7.2-8.6c-1.8-2.9-3.7-5.2-4.3-5.2c-0.5 0-3.1 2.6-5.7 5.7c-2.7 3.1-6.8 7.9-9.3 10.6c-2.5 2.8-6.3 6.3-8.5 7.9c-2.5 1.8-5.2 2.8-7.2 2.8c-2.1 0-4.1-0.8-5.4-2.2c-1.9-2-2.1-3-1.5-7.5c0.3-2.9 0.3-5.3-0.1-5.3c-0.5 0.1-2.5 1.6-4.5 3.5c-3 2.8-4.6 3.5-7.8 3.5c-3.8 0-4.3-0.4-9.8-7.2c-3.2-4-6.7-7.4-7.8-7.6c-1.4-0.3-5.4 3.3-14.4 12.8c-11.1 11.6-12.8 13.1-15.4 12.8c-1.6-0.2-3.4-1.1-4-2c-0.8-1.3-0.6-4.4 0.8-12c1-5.7 2.1-11.6 2.4-13.3c0.5-2.8 0.1-2.6-6.9 3.9c-4.1 3.7-9.2 7.7-11.4 8.7c-2.2 1-6.2 1.9-9 1.9c-3.6 0-5.5-0.5-6.7-1.7c-0.9-1-2.3-3.4-4.5-8.8l-3.5 5c-2 2.8-5.7 6.9-8.2 9.3c-4.2 3.9-5 4.2-10.1 4.2c-4.4 0-6-0.5-7.8-2.2c-1.5-1.5-2.8-4.5-3.6-8.8c-0.7-3.6-1.5-6.8-1.7-7.2c-0.2-0.5-2.1 0.6-7.9 5.6l-0.3-4c-0.2-2.8 0.5-5.1 2.2-7.9c1.4-2.2 5.9-8.4 10-13.7c4.2-5.4 8.6-10.5 9.9-11.4c1.4-1 3.2-1.3 5-1c1.7 0.4 2.7 1.2 2.7 2.4c0 0.9-1.3 6.2-2.9 11.7c-1.6 5.5-3.2 12-3.6 14.5c-0.4 2.5-0.5 5.7-0.1 7.3c0.3 1.5 1.3 2.7 2.1 2.7c0.8 0 3.9-2.8 6.8-6.2c2.9-3.5 7.6-9.3 10.5-13c3.4-4.4 5.9-6.8 7.2-6.8c1.1 0 2.8 0.8 3.8 1.8c1.1 0.9 2.2 4.1 2.7 7.2c0.5 3 1.6 6.4 2.6 7.5c1.4 1.8 2 1.9 4.5 0.7c1.6-0.6 7.9-6.7 13.9-13.3c6.1-6.7 12.2-13 13.8-14c1.5-1.1 3.6-1.9 4.7-1.9c1.1 0 2.7 1 3.5 2.3c0.8 1.2 1.5 3.8 1.5 5.7c0 1.9-1.2 7.3-2.5 12c-1.4 4.7-2.3 8.6-2 8.8c0.3 0.1 4.7-3.4 9.8-7.8c8.4-7.4 9.5-8.1 13.5-8c3.7 0 4.5 0.4 7 3.8c1.5 2.1 3.6 5.7 4.7 8c1.1 2.3 2.7 4.5 3.5 4.7c0.8 0.3 3.1-0.6 5-2c1.9-1.4 10.9-9.5 20-18.1c9.1-8.6 18-16.9 19.9-18.3c1.8-1.4 4.5-4.6 6-7.1c1.4-2.5 5-10.9 8.1-18.7c3-7.9 6.8-15.8 8.3-17.8c1.6-2 3.7-3.5 5-3.5zm-45.5 83.8c-2.1 4-3.3 7.2-2.8 7.2c0.6 0 2.9-2.1 5.1-4.7c2.3-2.7 7-9.1 10.5-14.3c3.5-5.2 6.3-9.8 6.4-10.2c0-0.5-0.4-0.8-1-0.8c-0.5 0-4 3.5-7.7 7.8c-3.7 4.3-8.5 11.1-10.5 15zm228.2 3c-0.5 2-1 4.7-1 6c0 1.2 0.5 2.4 1 2.7c0.6 0.3 2.5 0.1 4.3-0.5c1.7-0.5 5.1-3 7.5-5.5c2.3-2.5 4.9-5.8 5.7-7.5c0.8-1.6 1.5-4 1.5-5.2c0-1.3-0.5-2.9-1.2-3.6c-0.7-0.7-2.3-1.2-3.5-1.2c-1.4 0-4.4 2.2-7.8 5.5c-3.5 3.5-5.9 6.8-6.5 9.3zm37-69.8c0.8 0 2.3 0.8 3.3 1.8c1 0.9 1.8 2.5 1.7 3.5c0 0.9-1.6 3.1-3.5 4.7c-1.9 1.7-7 4.7-11.2 6.9c-4.3 2.1-9.6 4.4-11.8 5c-2.2 0.6-5 0.8-6.2 0.6c-2-0.4-2.1-0.7-1-2.1c0.6-0.9 3.7-3 6.7-4.7c3-1.8 8.9-6 13-9.4c4.1-3.5 8.2-6.3 9-6.3zm-73 4c2.3 0 3.1 0.5 3.6 2.3c0.3 1.2 0.2 4-0.2 6.2c-0.5 2.7-2.1 5.4-4.8 8.2c-2.3 2.3-5.4 4.5-7.1 4.9c-1.6 0.3-3.7 0.2-4.5-0.3c-0.8-0.6-1.6-2.3-1.8-3.9c-0.2-1.6 0.3-4.2 1-5.8c0.7-1.6 3.4-4.8 6-7.2c3.4-3.2 5.5-4.4 7.8-4.4zm216 6.4c7.2 0.4 9.6 1 15.5 4c3.9 1.9 9 5.5 11.5 8c4.2 4.3 4.4 4.6 2.8 6.3c-0.9 1-4.2 3.3-12.8 8.3l-5.7-3.5c-5-3-6.7-3.5-11.8-3.5c-4.1 0.1-7 0.7-9 1.9c-1.6 1-4.5 4-6.3 6.7c-1.8 2.7-3.5 6.5-3.9 8.4c-0.3 1.9-0.4 5.5-0.2 8c0.3 2.6 1.7 6.6 3.5 9.5c1.8 3 4.6 5.9 6.9 7.2c2.7 1.5 5.7 2.3 9 2.3c3.5 0 6.8-0.9 11.3-3c3.4-1.7 7-3 8-3c0.9-0.1 3.8 1.7 6.5 4c2.6 2.2 4.7 4.7 4.7 5.5c0 0.8-2 3.2-4.3 5.3c-2.4 2-7.3 5.3-10.8 7.2c-6.2 3.4-6.7 3.5-17.4 3.5c-9.6-0.1-11.6-0.4-15.5-2.4c-2.5-1.3-6.7-4-9.4-6c-2.7-2-6.4-5.6-8.2-8.1c-1.8-2.5-4.2-7.2-5.4-10.5c-1.1-3.3-2.3-8.5-2.6-11.5c-0.4-3.5 0-8 1-12.2c0.9-3.8 2.3-8.3 3.2-10c0.9-1.8 3.1-5.1 4.9-7.3c1.7-2.2 5.6-5.6 8.6-7.6c3-2.1 8.1-4.7 11.4-5.8c4.9-1.8 7.5-2.1 14.5-1.7zm94-0.3c5.3 0 9.4 0.6 14 2.2c3.6 1.3 8.6 3.7 11.3 5.5c2.6 1.8 6.6 5.6 8.8 8.5c2.3 2.8 5.1 7 6.3 9.2c1.8 3.5 2.1 5.7 2.1 16.5c0 12-0.1 12.7-3 18c-1.6 3-5.5 7.9-8.5 11c-3 3-8.4 7.1-12 9c-6.4 3.4-6.7 3.5-18 3.4c-9.1-0.1-12.6-0.5-17-2.2c-3.6-1.4-7.9-4.3-12.5-8.5c-3.8-3.5-8.2-8.6-9.7-11.3c-1.4-2.7-3.2-8-3.9-11.9c-0.6-3.8-0.9-9.2-0.7-12c0.3-2.7 1.5-7.5 2.6-10.5c1.4-3.6 4.3-7.9 8.4-12.4c3.5-3.7 7.9-7.8 9.8-8.9c1.9-1.2 6-2.9 9-3.9c3.1-0.9 8.7-1.7 13-1.7zm-12.8 24.7c-0.7 0.9-2.5 4.2-3.9 7.2c-2.1 4.5-2.5 6.6-2.2 11.6c0.3 4.5 1.2 7.3 3.4 11c1.8 2.9 4.7 5.8 7 7.1q4 2.3 9 2.3q5 0 9-2.3c2.7-1.5 4.9-4 7-7.7c2.5-4.6 3-6.6 2.9-12c0-5.2-0.6-7.6-3-12c-2.2-4.3-3.9-6-7.4-7.8c-2.8-1.3-6.2-2.2-9-2.2c-2.5 0.1-6.1 0.7-8 1.6c-1.9 0.8-4.1 2.2-4.8 3.2zm124.3-24.3l0.3 13.3c0.2 12.2 0.1 13.2-1.5 12.6c-1-0.4-3.4-1.3-5.3-2c-1.9-0.7-4.5-1.3-5.7-1.4c-1.3 0-3.9 0.7-5.8 1.5c-2.1 0.9-4.1 2.8-5.1 4.8c-1.1 2.2-1.9 7.8-2.5 17.7c-0.5 8-0.9 19.3-0.9 36h-22v-29.7c0-16.4 0.3-34.2 0.8-39.6c0.7-9.5 0.8-9.7 3.2-9.7c1.4 0 4.5 0.6 7 1.4c4 1.2 5.1 1.1 10-0.6c3-1.1 8.2-2.6 11.5-3.3c3.3-0.8 8.3-1.3 16-1zm63.3-0.4c4.7-0.1 9.3 0.6 13.5 2c3.4 1.1 8.4 3.5 11.1 5.2c2.7 1.8 6.5 5 8.5 7.3c2 2.3 4.9 6.5 6.6 9.5c2.9 5.2 3 5.9 3 17.9c0 12-0.1 12.7-3 18c-1.6 3-5.5 7.9-8.5 11c-3 3-8.4 7.1-12 9c-6.4 3.4-6.7 3.5-18 3.4c-9.1-0.1-12.6-0.5-17-2.2c-3.6-1.4-7.9-4.3-12.5-8.5c-3.8-3.5-8.2-8.6-9.7-11.3c-1.4-2.7-3.2-8-3.9-11.9c-0.6-3.8-0.9-9.2-0.7-12c0.3-2.7 1.5-7.5 2.6-10.5c1.4-3.6 4.3-7.9 8.4-12.4c3.5-3.7 7.9-7.8 9.8-8.9c1.9-1.2 6-2.9 9-3.9c3-0.9 8.8-1.7 12.8-1.7zm-12.6 24.7c-0.7 0.9-2.5 4.2-3.9 7.2c-2.1 4.5-2.5 6.6-2.2 11.6c0.3 4.5 1.2 7.3 3.4 11c1.8 2.9 4.7 5.8 7 7.1q4 2.3 9 2.3q5 0 9-2.3c2.7-1.5 4.9-4 7-7.7c2.5-4.6 3-6.6 2.9-12c0-5.2-0.6-7.6-3-12c-2.2-4.3-3.9-6-7.4-7.8c-2.8-1.3-6.2-2.2-9-2.2c-2.5 0.1-6.1 0.7-8 1.6c-1.9 0.8-4.1 2.2-4.8 3.2zm121.8-24.4c5.5 0.2 8.9 1 12.8 3c2.8 1.4 7.1 4.3 9.5 6.5c2.3 2.1 5.5 6.5 7.1 9.7c2.7 5.3 3.1 7.3 3.7 19.4c0.5 7.4 0.9 20.4 1.4 44h-22.5v-11.7c0-6.5-0.5-18.3-1.1-26.2c-0.8-12.1-1.3-14.9-3.3-18c-1.2-2-3.9-4.4-5.9-5.3c-2-1-5.2-1.8-6.9-1.8c-1.8 0-5.1 0.9-7.3 1.9c-2.2 1-5 2.9-6.3 4.2c-1.2 1.3-2.7 4.4-3.2 6.9c-0.5 2.5-1.2 14.7-2.5 50h-21.5v-40c0-34.9 0.2-40 1.5-40c0.8 0 4.1 0.7 7.3 1.6c4.7 1.3 6.6 1.4 10.7 0.5c2.8-0.6 8.2-2 12-3.1c5.1-1.5 9.1-1.9 14.5-1.6zm-493.2 28.6c2.2 0 3.7 0.7 4.7 2.3c0.8 1.2 1.5 3.3 1.5 4.7c0 1.4-1.1 6.8-2.5 12c-1.4 5.2-2.3 9.6-2 9.8c0.3 0.1 3.3-2.4 6.8-5.6c3.4-3.2 7.6-6.8 9.2-8c1.9-1.4 4.4-2.3 6.8-2.2c2.2 0 4.4 0.7 5.3 1.8c0.9 0.9 2.7 3.7 3.9 6.2c1.3 2.5 3.1 5.6 6 9.3l4-3.6c2.2-2 4.6-3.6 5.3-3.7c0.7 0 1.2 1.3 1.2 3.3c0 1.7-0.9 5.1-2 7.5c-1.2 2.4-3.8 5.4-6.2 7.2c-2.9 2.1-5.4 3-7.8 3c-2.7-0.1-4.3-0.9-7-3.9c-1.9-2.1-4.8-5.5-6.5-7.5c-2.9-3.7-3.1-3.7-5.8-2.5c-1.6 0.8-7.6 6.7-13.3 13.2c-9.2 10.4-10.8 11.7-13.6 11.7c-1.8 0-3.9-0.5-4.6-1.2c-0.7-0.7-1.2-2.9-1.2-4.8c0-1.9 0.9-6.6 1.9-10.5c1.1-3.8 2.2-8.7 2.5-10.7c0.3-2.1 0.4-3.8 0.1-3.8c-0.3 0-4.7 3.9-9.7 8.6c-5.1 4.8-11.2 9.7-13.5 11c-2.4 1.3-4.7 2.2-5.3 1.9c-0.6-0.3-0.3-1.6 0.7-3.2c0.9-1.6 5.5-7.3 10.2-12.7c4.7-5.5 12.9-14.4 18.1-19.8c8.2-8.5 9.9-9.8 12.8-9.8z" /></svg>